PathFileType	3	(X/Y/Z)	D:\VICON_DB\Goncalves\Pilot01\09-03-2026\bw_sq_02.trc
DataRate	CameraRate	NumFrames	NumMarkers	Units	OrigDataRate	OrigDataStartFrame	OrigNumFrames
200.0	200.0	5	34	mm	200.0	587	670	
Frame#	Time	LASI			RASI			LPSI			RPSI			LTHI			LTHAP			LTHAD			LKNE			LKNM			LTIB			LTIAP			LTIAD			LANK			LMED			LHEE			LTOE			LFMH			LSMH			LVMH			RTHI			RTHAP			RTHAD			RKNE			RKNM			RTIB			RTIAP			RTIAD			RANK			RMED			RHEE			RTOE			RFMH			RSMH			RVMH			
		X1	Y1	Z1	X2	Y2	Z2	X3	Y3	Z3	X4	Y4	Z4	X5	Y5	Z5	X6	Y6	Z6	X7	Y7	Z7	X8	Y8	Z8	X9	Y9	Z9	X10	Y10	Z10	X11	Y11	Z11	X12	Y12	Z12	X13	Y13	Z13	X14	Y14	Z14	X15	Y15	Z15	X16	Y16	Z16	X17	Y17	Z17	X18	Y18	Z18	X19	Y19	Z19	X20	Y20	Z20	X21	Y21	Z21	X22	Y22	Z22	X23	Y23	Z23	X24	Y24	Z24	X25	Y25	Z25	X26	Y26	Z26	X27	Y27	Z27	X28	Y28	Z28	X29	Y29	Z29	X30	Y30	Z30	X31	Y31	Z31	X32	Y32	Z32	X33	Y33	Z33	X34	Y34	Z34	
587	2.93	80.95845	902.37048	-1072.3948	78.82206	900.69617	-1331.6804				272.3912	946.44147	-1231.7362	93.184105	693.14459	-1031.2349	108.58862	767.56879	-1022.7121	143.95227	630.75275	-1013.0267	200.55901	476.1882	-1027.774				251.9494	283.43344	-1008.7028	186.73586	354.18539	-1062.6506	211.77162	252.54926	-1034.3862	284.63019	71.073006	-1028.7833				328.00851	65.323822	-1082.0585	205.17068	71.67588	-1048.0471	149.60876	44.980171	-1075.4498				163.45598	24.804953	-994.83588	141.81467	623.02765	-1377.7882	91.528473	746.65009	-1359.5374	79.695938	651.96277	-1341.6617	201.95071	491.51895	-1365.2433				236.5786	296.20975	-1381.869	192.58189	344.05063	-1329.1759	203.90442	262.6875	-1330.8669	294.18094	63.411659	-1353.2626				330.27176	61.69939	-1310.7131	201.77399	68.113464	-1337.0708	152.09647	48.973053	-1311.368				165.49037	18.989853	-1384.5394
588	2.935	80.60717	902.37329	-1072.162	78.338737	900.61487	-1331.3987				271.76501	946.34088	-1231.6063	92.840347	693.0741	-1031.0011	108.23425	767.52148	-1022.4921	143.68211	630.69403	-1012.8984	200.43318	476.17361	-1027.615				251.89725	283.40671	-1008.6063	186.74278	354.17639	-1062.5746	211.74472	252.52852	-1034.3417	284.60544	71.056923	-1028.7134				328.02005	65.314224	-1082.0155	205.17789	71.669907	-1048.0496	149.612	44.979321	-1075.4507				163.4548	24.80332	-994.83197	141.45821	622.93542	-1377.6614	91.067657	746.5144	-1359.3533	79.360634	651.82336	-1341.4554	201.72853	491.49197	-1365.194				236.45305	296.20309	-1381.8716	192.54512	344.03012	-1329.1049	203.88618	262.67722	-1330.8098	294.1774	63.393192	-1353.3225				330.28311	61.679874	-1310.8275	201.78336	68.115028	-1337.0961	152.10968	48.974998	-1311.3602				165.47208	18.998201	-1384.5446
589	2.94	80.274117	902.37781	-1071.9293	77.883095	900.54181	-1331.1204				271.16385	946.23553	-1231.4725	92.505363	693.00653	-1030.7728	107.89193	767.4726	-1022.2752	143.41718	630.6366	-1012.7728	200.3069	476.15762	-1027.458				251.84488	283.37952	-1008.5112	186.74474	354.16565	-1062.498	211.71739	252.507	-1034.2974	284.58176	71.040947	-1028.6477				328.02969	65.305435	-1081.9774	205.18457	71.663994	-1048.0531	149.61465	44.978783	-1075.451				163.45415	24.801937	-994.82794	141.08937	622.84906	-1377.528	90.61554	746.39368	-1359.1689	79.013268	651.70001	-1341.2507	201.47398	491.46143	-1365.1353				236.2953	296.19217	-1381.8661	192.47426	343.99994	-1329.0253	203.84096	262.65964	-1330.7434	294.16928	63.37738	-1353.3768				330.28912	61.664234	-1310.9363	201.78928	68.116661	-1337.116	152.12009	48.975853	-1311.3497				165.4521	19.009594	-1384.5491
590	2.945	79.959953	902.3844	-1071.6978	77.45472	900.47845	-1330.8463				270.59171	946.12872	-1231.334	92.181427	692.94153	-1030.5513	107.56264	767.42157	-1022.0628	143.15924	630.58032	-1012.6495	200.18179	476.14029	-1027.3033				251.79362	283.35202	-1008.4177	186.74181	354.15323	-1062.4205	211.69044	252.48489	-1034.2521	284.56042	71.025002	-1028.5891				328.03741	65.297356	-1081.9441	205.19072	71.658073	-1048.0577	149.61668	44.978519	-1075.4513				163.4541	24.80069	-994.82367	140.71008	622.76904	-1377.3873	90.17263	746.28772	-1358.9839	78.655006	651.59241	-1341.047	201.19052	491.42789	-1365.0668				236.10912	296.17819	-1381.8523	192.37183	343.96164	-1328.937	203.77055	262.63589	-1330.6683	294.15656	63.364929	-1353.4242				330.28961	61.652821	-1311.038	201.7917	68.118301	-1337.1296	152.12737	48.975502	-1311.3365				165.43089	19.023941	-1384.5525
591	2.95	79.665398	902.39368	-1071.468	77.053024	900.42627	-1330.5775				270.05243	946.02466	-1231.1901	91.870628	692.87939	-1030.3379	107.24725	767.36829	-1021.8549	142.90976	630.52515	-1012.5286	200.05881	476.12149	-1027.152				251.74413	283.32422	-1008.3264	186.73367	354.13913	-1062.3414	211.66414	252.46208	-1034.2057	284.54242	71.009033	-1028.5404				328.04315	65.289925	-1081.9163	205.19626	71.652107	-1048.0637	149.61801	44.97847	-1075.4514				163.45471	24.799465	-994.8194	140.32275	622.69604	-1377.2391	89.73954	746.19611	-1358.7976	78.287491	651.49976	-1340.8445	200.88232	491.39215	-1364.9878				235.8988	296.16257	-1381.8297	192.24089	343.91708	-1328.8409	203.67719	262.60706	-1330.585	294.13943	63.356533	-1353.463				330.28442	61.645947	-1311.1305	201.7907	68.119949	-1337.1359	152.13133	48.973881	-1311.3201				165.40878	19.041029	-1384.5544
